<?xml version="1.0" encoding="utf-8"?>
<!-- Generator: Adobe Illustrator 24.2.3, SVG Export Plug-In . SVG Version: 6.00 Build 0)  -->
<svg version="1.1" id="レイヤー_1" xmlns="http://www.w3.org/2000/svg" xmlns:xlink="http://www.w3.org/1999/xlink" x="0px"
	 y="0px" viewBox="0 0 240 100" style="enable-background:new 0 0 240 100;" xml:space="preserve">
<style type="text/css">
	.st0{fill:#FFFFFF;}
	.st1{fill:#BF0000;}
</style>
<rect class="st0" width="240" height="100"/>
<g>
	<path class="st1" d="M170,66.6H70.7l7.9,7.9L170,66.6z M186,61.5V45.7c0-3,2.1-5.5,5-5.5c3,0,5,2.5,5,5.5v15.8h6.2V45.7
		c0-6.5-4.4-11.8-11-11.8c-3,0-5.2,1.6-5.2,1.6v-1.1h-6.1v26.9h6.1L186,61.5L186,61.5z M165.7,33.7c-7.1,0-12.1,6.2-12.1,14.2
		c0,8.3,6.4,14.2,12.8,14.2c3.3,0,7.4-1.1,10.8-6.1l-5.5-3.2c-4.1,6.2-11.2,3.1-12-3.2h17.6C178.8,40.2,172.6,33.7,165.7,33.7
		L165.7,33.7z M171,44.5h-11C161.3,38.2,169.8,37.9,171,44.5z"/>
	<path class="st1" d="M151.5,55c-0.6,0.4-1.3,0.7-2.1,0.7c-1,0-2.9-0.8-2.9-3.3V40.9h5.2v-6.5h-5.2v-6.8h-6.1v6.8h-3.3v6.5h3.3v11.6
		c0,6.1,4.6,9.6,9.1,9.6c1.6,0,4-0.6,5.9-1.6L151.5,55z M128.9,34.5v15.8c0,3-2.1,5.5-5,5.5c-3,0-5-2.5-5-5.5V34.5h-6.2v15.8
		c0,6.5,4.4,11.8,11,11.8c3,0,5.2-1.7,5.2-1.7v1h6.1V34.5H128.9z"/>
	<path class="st1" d="M101.2,47.2l10.5-12.7h-8.6l-7.4,9.4V25.6h-6.2v35.9h6.2V50.4l9.1,11.1h8.6L101.2,47.2z M79.9,34.5v1.2
		c-1.9-1.2-3.4-1.9-5.8-1.9c-6.9,0-12.3,6.4-12.3,14.2s5.3,14.2,12.3,14.2c2.2,0,4-0.7,5.8-1.9v1.2H86v-27H79.9z M74,55.6
		c-3.5,0-5.9-3.4-5.9-7.7s2.5-7.7,5.9-7.7c3.4,0,5.8,3.4,5.8,7.7C79.9,52.3,77.5,55.6,74,55.6L74,55.6z"/>
	<path class="st1" d="M44.2,61.5V51h4.4l7.8,10.4h8L55,48.8c3-2.1,4.9-5.5,4.9-9.5c0-6.4-5.2-11.6-11.6-11.6H37.8v33.7h6.5V61.5z
		 M44.2,34.2h4.1c2.8,0,5.2,2.4,5.2,5.2s-2.4,5.2-5.2,5.2h-4.1V34.2z"/>
</g>
</svg>
