<?xml version="1.0" encoding="utf-8"?>
<!-- Generator: Adobe Illustrator 24.2.3, SVG Export Plug-In . SVG Version: 6.00 Build 0)  -->
<svg version="1.1" id="レイヤー_1" xmlns="http://www.w3.org/2000/svg" xmlns:xlink="http://www.w3.org/1999/xlink" x="0px"
	 y="0px" viewBox="0 0 240 100" style="enable-background:new 0 0 240 100;" xml:space="preserve">
<style type="text/css">
	.st0{fill:#FFFFFF;}
	.st1{fill-rule:evenodd;clip-rule:evenodd;fill:#E61F19;}
</style>
<rect class="st0" width="240" height="100"/>
<g>
	<path class="st1" d="M79.7,41.7c-0.9,0.1-4.5,0.9-5.7,1.1c-1.3,0.4-13.2,9.6-14,11.8c-0.2,0.8-0.2,2-0.2,3.2l-0.1,1.8
		c0,1.3,0.4,3.4,0.5,4.5c0.8,0.2,6.5,0,7.5,0.2l-0.2,2.3c-1.1-0.1-8.2-0.1-12.3-0.1c-2.1,0-8.8,0.2-10.9,0.2l0.4-2.2
		c1.1-0.1,5.8,0.2,6.8-0.9c0.5-0.5,0.4-1.1,0.4-4.3v-1.5c0-0.7,0-2-0.2-3.2c-0.5-1.3-11-14.4-13.6-16.5c-0.8-0.2-5.7-0.8-6.9-1
		l-0.1-2c0.6-0.3,6.1,0.1,11.3-0.2c3.4-0.2,11.4,0,12.4,0.2l-0.2,1.8c-1,0.2-6.1,0.4-7.3,0.7c3.4,5,8.8,11.5,10.5,14
		c1-1.4,9.4-7.2,9.6-9.2c-1.3-0.2-5.6-0.9-6.3-0.9l-0.4-2.2c1.2-0.2,7.4,0,10.5,0c2.7,0,8.4,0,10,0.2L79.7,41.7L79.7,41.7z"/>
	<path class="st1" d="M97.6,65.7c-0.4-0.1-4.7-0.1-6.3-0.1c-0.9,0-5.7,0-6.5,0l0.2-2c1.1-0.1,3.1-0.5,4-0.6c-0.6-1.3-2.6-5.7-3-6.5
		c-1.1,0-5.2,0.1-6.4,0.4c-0.2,0.4-1.8,1.9-2,4c0.8,0.2,2.3,0.4,3.2,0.6l-0.4,2c-0.9-0.1-4.7,0.1-5.5,0c-0.8,0-4.7,0-5.3,0.2
		l0.7-2.2c0.9-0.1,2.9-0.8,3.7-0.9c1.1-1.6,6.4-12.1,6.9-13c-0.7-0.2-1.9-0.8-2.7-0.8l-0.1-1.5c0.9,0.1,5.6,0.2,6.1,0.2
		c1.1-0.1,5.2,0,6.2-0.1l-0.4,1.5c-0.8,0.1-2.2,0.4-2.9,0.6c0.4,1.1,1.9,4.9,3.1,7.6c0.9,2,2.3,5.9,3.7,8.1c0.9,0.1,3.1,0.8,4.1,0.8
		l0.1,0.5L97.6,65.7L97.6,65.7z M83.2,48.3L83.2,48c-1,2.3-2.6,5.9-3,6.8h5.4C85,53.1,83.8,49.8,83.2,48.3L83.2,48.3z"/>
	<path class="st1" d="M129.7,60.1c-0.8-0.1-4.4-0.1-6.2,0c-1.5,0.1-5-0.2-6.8-0.1l-0.2-2.1c0.6-0.1,4.2-0.3,4.9-0.4
		c0.2-1.1,0.2-2.7,0.2-4l-0.1-2.4c-1.9,0-14.2,0.7-14.7,0.7l-0.9,0.2c0,3.3,0.1,4.3,0.4,5.5c1,0.2,4.5,0.4,5.2,0.5l-0.1,2.2
		c-0.9-0.1-6.3,0-8,0c-2,0-7-0.1-8.1,0l0.2-2.3c0.9-0.1,4.4-0.4,5.2-0.5c0.1-1.5,0.1-3.9,0.1-6.4V48c0-1-0.1-4-0.1-5.1
		c-0.8-0.2-4.3-0.4-5.3-0.4l-0.1-1.7c0.7,0.1,5.6-0.1,8.1-0.1c2.4,0,7.8,0.1,8.4,0l-0.2,1.9c-1.1,0.1-4.8,0.4-5.4,0.5
		c-0.2,0.9-0.4,1.7-0.4,4.4l-0.1,1.4c1,0,14-0.1,15.6-0.3v-2c0-2.6,0.4-5.3,0.1-6.1c-0.7-0.2-4.1-0.7-5.2-0.8l0.1-1.9
		c0.7,0.1,4,0.1,6.4,0.1c2.6,0,6.3,0.1,7.1,0l-0.2,1.5c-0.8,0.1-4.1,0.9-4.1,0.9s-0.2,1.6-0.1,3.9c0.2,1.9,0.2,5.6,0.2,5.6
		c0.1,4.2,0.4,7.5,0.1,7.7c-0.3,0.2,2.7,0.4,3.5,0.5l0.3,0.5L129.7,60.1L129.7,60.1z"/>
	<path class="st1" d="M159.6,50.4c0.3,7.1-6.2,10.7-14.6,10.7c-3.5,0-7.8-0.7-11.4-2.9c-2.9-1.7-3.3-3.9-3.3-6.7
		c0-5.7,6.2-10.4,15.8-10.3c3.6,0,7.1,0.5,10,2.8c2.5,2,2.9,2.9,3.4,5.1L159.6,50.4L159.6,50.4z M155,50.9c0.2-5.9-4.4-7.4-10.2-7
		c-3,0.2-9.2,1.8-9.2,7c0,5.2,4.7,8,11.1,7.4c4.9-0.4,7.5-2.2,8.1-4.7L155,50.9L155,50.9z"/>
	<path class="st1" d="M202.1,54.6l-3.8-0.4c0.4-1.9,0.1-16.5,0-18.1l-0.2-3.1c1,0.2,0.9,0.1,5.3,0.6c2.7,0.3,3.1,0.4,3.9,0.5
		l-1.1,3.6C205.2,40.7,202.4,53.7,202.1,54.6L202.1,54.6z M199.5,62.4l-2-0.2v-4.3l2.5,0.3l2.2,0.1l-0.6,4.3L199.5,62.4L199.5,62.4z
		"/>
	<path class="st1" d="M194.9,47.5c0.5,6.7-7.2,12.1-16.8,12.1c-4,0-7.4-0.4-11.3-3.1c-3.2-2.2-4.8-4-5.2-7.7
		c-0.8-6.5,7.1-11.9,18-11.8c4.1,0,8.1,0.6,11.3,3.2c2.8,2.2,3.4,4.3,3.9,6.8L194.9,47.5L194.9,47.5z M189.9,48.5
		c0.4-6.4-5.8-8.7-12.4-8.2c-3.4,0.2-10,2.3-10,8.2s5.4,8.8,12.7,8.2c5.6-0.5,8-2.6,9.2-5.5C189.4,51.3,189.8,50.4,189.9,48.5
		L189.9,48.5z"/>
	<path class="st1" d="M206.7,58.2c1.1,0,2.1,0.9,2.1,2.1c0,1.2-1,2.1-2.1,2.1c-1.2,0-2.1-0.9-2.1-2.1
		C204.6,59.2,205.6,58.2,206.7,58.2L206.7,58.2z M206.7,62.2c1,0,1.7-0.8,1.7-1.8c0-1.1-0.8-1.8-1.7-1.8c-1,0-1.7,0.8-1.7,1.8
		C205,61.5,205.7,62.2,206.7,62.2L206.7,62.2z M205.9,59.1h1c0.6,0,0.9,0.2,0.9,0.7s-0.3,0.7-0.7,0.7l0.8,1.1h-0.4l-0.7-1.1h-0.5
		v1.1h-0.4V59.1L205.9,59.1z M206.2,60.3h0.4c0.3,0,0.7,0,0.7-0.5c0-0.4-0.3-0.4-0.5-0.4h-0.5V60.3L206.2,60.3z"/>
</g>
</svg>
