<?xml version="1.0" encoding="utf-8"?>
<!-- Generator: Adobe Illustrator 25.2.0, SVG Export Plug-In . SVG Version: 6.00 Build 0)  -->
<svg version="1.1" id="レイヤー_1" xmlns="http://www.w3.org/2000/svg" xmlns:xlink="http://www.w3.org/1999/xlink" x="0px"
	 y="0px" viewBox="0 0 400 100" style="enable-background:new 0 0 400 100;" xml:space="preserve">
<g>
	<g>
		<path d="M12.7,91.8c-0.1,0.1-0.1,0.3-0.2,0.4c-0.1,0.2-0.1,0.3-0.1,0.4c0,0.1,0,0.1,0,0.2c0,0,0.1,0.1,0.2,0.1
			c0.1,0,0.2,0,0.4-0.1c0.2-0.1,0.3-0.1,0.5-0.3c0.2-0.1,0.4-0.2,0.6-0.4c0.2-0.1,0.4-0.3,0.6-0.4c0.2-0.1,0.4-0.3,0.6-0.4
			c0.2-0.1,0.3-0.3,0.5-0.4c0,0,0.1-0.1,0.1-0.1c0.1,0,0.1,0,0.1,0c0.1,0,0.2,0,0.3,0.1c0.1,0.1,0.1,0.2,0.1,0.3
			c0,0.1,0,0.2-0.1,0.4c-0.1,0.1-0.2,0.3-0.4,0.4c-0.3,0.3-0.7,0.6-1,0.9c-0.3,0.3-0.7,0.5-1,0.7c-0.3,0.2-0.7,0.4-1,0.5
			c-0.3,0.1-0.6,0.2-1,0.2c-0.2,0-0.4,0-0.5-0.1c-0.1-0.1-0.3-0.1-0.3-0.2c-0.1-0.1-0.1-0.2-0.2-0.3c0-0.1-0.1-0.3-0.1-0.4
			c0-0.3,0-0.5,0.1-0.8c0.1-0.3,0.2-0.5,0.3-0.7c0.2-0.4,0.4-0.8,0.5-1.2c0.2-0.4,0.4-0.8,0.5-1.1l2.3-5c0.1-0.2,0.2-0.3,0.4-0.4
			c0.2-0.1,0.3-0.1,0.5-0.1c0.2,0,0.3,0,0.4,0.1s0.2,0.2,0.2,0.4c0,0.1,0,0.2-0.1,0.3s-0.1,0.2-0.2,0.3c-0.1,0.2-0.3,0.5-0.5,0.9
			c-0.2,0.3-0.4,0.7-0.6,1.1c-0.2,0.4-0.4,0.8-0.6,1.3c-0.2,0.4-0.4,0.9-0.6,1.3c-0.2,0.4-0.4,0.8-0.6,1.2
			C13,91.2,12.8,91.6,12.7,91.8z"/>
		<path d="M16.5,89.1c0.1-0.1,0.2-0.2,0.3-0.3c0.1-0.1,0.2-0.1,0.3-0.1c0.2,0,0.4,0.1,0.5,0.2s0.2,0.3,0.2,0.5c0,0,0,0.1,0,0.1
			c0,0,0,0.1-0.1,0.1c-0.1,0.1-0.1,0.2-0.2,0.3c0,0.1-0.1,0.2-0.1,0.3c0,0.1-0.1,0.2-0.1,0.2c0,0.1-0.1,0.2-0.1,0.3
			c-0.1,0.1-0.1,0.3-0.2,0.4c-0.1,0.2-0.2,0.3-0.2,0.5c-0.1,0.2-0.1,0.3-0.2,0.5c0,0.2-0.1,0.3-0.1,0.4c0,0.1,0,0.2,0.1,0.3
			c0.1,0,0.2,0.1,0.3,0.1c0.1,0,0.3,0,0.5-0.1c0.2-0.1,0.3-0.1,0.5-0.2c0.2-0.1,0.3-0.2,0.5-0.3c0.2-0.1,0.3-0.3,0.4-0.4
			s0.3-0.3,0.4-0.4c0.1-0.1,0.2-0.2,0.3-0.3c0.1-0.1,0.2-0.1,0.3-0.1c0.1,0,0.2,0,0.2,0.1c0.1,0.1,0.1,0.2,0.1,0.3
			c0,0.1,0,0.2-0.1,0.4c-0.1,0.1-0.2,0.3-0.3,0.4c-0.3,0.3-0.5,0.5-0.8,0.8s-0.6,0.5-0.8,0.6c-0.3,0.2-0.6,0.3-0.9,0.5
			c-0.3,0.1-0.6,0.2-0.9,0.2c-0.4,0-0.7-0.1-1-0.3c-0.2-0.2-0.4-0.5-0.4-1c0-0.2,0-0.5,0.1-0.7c0.1-0.2,0.1-0.4,0.2-0.7
			c0.1-0.2,0.2-0.4,0.3-0.6c0.1-0.2,0.2-0.4,0.3-0.6c0-0.1,0.1-0.2,0.1-0.3c0.1-0.1,0.1-0.3,0.2-0.4C16.3,89.5,16.4,89.3,16.5,89.1z
			 M17.3,87.4c0-0.1,0-0.2,0.1-0.4c0-0.1,0.1-0.2,0.2-0.3c0.1-0.1,0.2-0.2,0.3-0.3c0.1-0.1,0.3-0.1,0.5-0.1c0.3,0,0.5,0.1,0.6,0.2
			c0.1,0.1,0.2,0.3,0.2,0.4c0,0.1,0,0.2-0.1,0.3c0,0.1-0.1,0.2-0.2,0.3c-0.1,0.1-0.2,0.2-0.3,0.3c-0.1,0.1-0.3,0.1-0.4,0.1
			c-0.3,0-0.5-0.1-0.7-0.2S17.4,87.6,17.3,87.4z"/>
		<path d="M24.5,89.7c-0.3,0-0.5,0-0.8,0c-0.2,0-0.5,0-0.7,0c-0.2,0-0.4,0-0.7,0c-0.2,0-0.4,0-0.7,0c-0.1,0.3-0.3,0.6-0.5,0.9
			c-0.2,0.3-0.3,0.7-0.5,1.1c-0.2,0.4-0.4,0.8-0.5,1.2c-0.2,0.4-0.4,0.8-0.5,1.1c-0.2,0.3-0.3,0.7-0.4,0.9c-0.1,0.3-0.2,0.5-0.3,0.7
			c-0.1,0.1-0.1,0.2-0.2,0.3c-0.1,0.1-0.2,0.2-0.3,0.3c-0.1,0.1-0.2,0.1-0.3,0.2c-0.1,0-0.2,0.1-0.3,0.1c-0.1,0-0.2,0-0.3-0.1
			c-0.1-0.1-0.1-0.2-0.1-0.3c0-0.1,0-0.1,0-0.2c0-0.1,0.1-0.2,0.1-0.3l2.7-5.8h-0.4c-0.3,0-0.5,0-0.6-0.1c-0.1-0.1-0.2-0.2-0.2-0.3
			c0-0.1,0.1-0.2,0.2-0.4s0.3-0.2,0.6-0.2h0.9c0.4-0.7,0.7-1.3,1.1-1.8c0.4-0.5,0.7-0.9,1.1-1.1c0.4-0.3,0.7-0.5,1-0.6
			c0.3-0.1,0.7-0.2,1-0.2c0.1,0,0.3,0,0.4,0.1c0.1,0.1,0.2,0.1,0.3,0.3c0.1,0.1,0.2,0.3,0.2,0.4C26,86,26,86.2,26,86.4
			c0,0.2,0,0.5-0.1,0.7c0,0.1,0,0.1-0.1,0.2c0,0-0.1,0.1-0.2,0.1c-0.1,0-0.1,0.1-0.2,0.1c-0.1,0-0.1,0-0.1,0c-0.1,0-0.2,0-0.3-0.1
			c-0.1,0-0.1-0.1-0.1-0.2c0-0.1,0-0.1,0-0.2c0-0.1,0-0.1,0-0.2c0-0.2,0-0.4-0.1-0.5c-0.1-0.1-0.2-0.1-0.3-0.1
			c-0.2,0-0.3,0.1-0.6,0.2c-0.2,0.1-0.4,0.3-0.6,0.6c-0.2,0.2-0.4,0.5-0.6,0.8c-0.2,0.3-0.4,0.6-0.5,0.9H24c0.2,0,0.3,0,0.4,0
			s0.3,0,0.4,0c0.1,0,0.2,0.1,0.2,0.1c0.1,0.1,0.1,0.1,0.1,0.3c0,0.1,0,0.1,0,0.2c0,0.1-0.1,0.1-0.1,0.2c0,0-0.1,0.1-0.2,0.1
			C24.7,89.7,24.6,89.7,24.5,89.7z"/>
		<path d="M26.5,88.5c0.4,0,0.7,0.1,1,0.3c0.2,0.2,0.3,0.5,0.3,0.9c0,0.2-0.1,0.4-0.2,0.7c-0.1,0.2-0.3,0.5-0.6,0.7
			s-0.6,0.5-1.1,0.7s-1,0.5-1.7,0.8c0,0.1,0.1,0.3,0.2,0.4C24.6,93,24.7,93,25,93c0.2,0,0.5,0,0.8-0.1c0.3-0.1,0.5-0.2,0.8-0.3
			s0.5-0.2,0.8-0.4c0.3-0.1,0.5-0.2,0.7-0.4s0.4-0.2,0.5-0.3s0.2-0.1,0.3-0.2c0,0,0.1,0,0.1-0.1c0,0,0.1,0,0.1,0c0.1,0,0.1,0,0.2,0
			c0,0,0.1,0.1,0.1,0.1c0,0,0,0.1,0.1,0.1c0,0,0,0.1,0,0.1c0,0,0,0.1,0,0.2c0,0.1,0,0.1-0.1,0.2c0,0-0.1,0.1-0.3,0.2
			c-0.1,0.1-0.3,0.2-0.6,0.4c-0.2,0.2-0.5,0.3-0.8,0.5c-0.3,0.2-0.6,0.3-1,0.5c-0.3,0.1-0.7,0.3-1.1,0.4c-0.4,0.1-0.7,0.1-1.1,0.1
			c-0.3,0-0.6-0.1-0.8-0.2c-0.2-0.1-0.4-0.3-0.6-0.5c-0.2-0.2-0.3-0.4-0.4-0.7c-0.1-0.3-0.1-0.5-0.1-0.8c0-0.2,0-0.5,0.1-0.7
			c0.1-0.3,0.2-0.5,0.4-0.8c0.2-0.3,0.4-0.5,0.6-0.8c0.2-0.3,0.5-0.5,0.8-0.7c0.3-0.2,0.6-0.4,1-0.5C25.7,88.5,26.1,88.5,26.5,88.5z
			 M26.3,89.5C26.2,89.5,26.2,89.5,26.3,89.5c-0.1,0-0.1,0-0.1,0c-0.2,0-0.4,0-0.5,0.1c-0.2,0.1-0.3,0.2-0.5,0.3
			c-0.1,0.1-0.3,0.3-0.4,0.4c-0.1,0.2-0.2,0.3-0.3,0.5c-0.1,0.2-0.2,0.3-0.2,0.5c-0.1,0.1-0.1,0.3-0.1,0.4c0.2-0.1,0.4-0.2,0.6-0.3
			c0.2-0.1,0.4-0.2,0.5-0.3c0.2-0.1,0.3-0.2,0.4-0.3c0.1-0.1,0.2-0.1,0.3-0.2c0.2-0.1,0.4-0.3,0.5-0.4c0.1-0.1,0.1-0.2,0.1-0.3
			c0-0.1,0-0.1-0.1-0.2C26.4,89.6,26.3,89.5,26.3,89.5z"/>
		<path d="M33.2,89.1c0.1-0.1,0.2-0.2,0.3-0.3c0.1-0.1,0.2-0.1,0.3-0.1c0.2,0,0.4,0.1,0.5,0.2c0.1,0.1,0.2,0.3,0.2,0.5
			c0,0,0,0.1,0,0.1c0,0,0,0.1-0.1,0.1c-0.1,0.1-0.1,0.2-0.2,0.3c0,0.1-0.1,0.2-0.1,0.3c0,0.1-0.1,0.2-0.1,0.2c0,0.1-0.1,0.2-0.1,0.3
			c-0.1,0.1-0.1,0.3-0.2,0.4c-0.1,0.2-0.2,0.3-0.2,0.5c-0.1,0.2-0.1,0.3-0.2,0.5c0,0.2-0.1,0.3-0.1,0.4c0,0.1,0,0.2,0.1,0.3
			c0.1,0,0.2,0.1,0.3,0.1c0.1,0,0.3,0,0.5-0.1c0.2-0.1,0.3-0.1,0.5-0.2c0.2-0.1,0.3-0.2,0.5-0.3c0.2-0.1,0.3-0.3,0.4-0.4
			c0.1-0.1,0.3-0.3,0.4-0.4c0.1-0.1,0.2-0.2,0.3-0.3c0.1-0.1,0.2-0.1,0.3-0.1c0.1,0,0.2,0,0.2,0.1c0.1,0.1,0.1,0.2,0.1,0.3
			c0,0.1,0,0.2-0.1,0.4c-0.1,0.1-0.2,0.3-0.3,0.4c-0.3,0.3-0.5,0.5-0.8,0.8c-0.3,0.2-0.6,0.5-0.8,0.6c-0.3,0.2-0.6,0.3-0.9,0.5
			c-0.3,0.1-0.6,0.2-0.9,0.2c-0.4,0-0.7-0.1-1-0.3c-0.2-0.2-0.4-0.5-0.4-1c0-0.2,0-0.5,0.1-0.7c0.1-0.2,0.1-0.4,0.2-0.7
			c0.1-0.2,0.2-0.4,0.3-0.6c0.1-0.2,0.2-0.4,0.3-0.6c0-0.1,0.1-0.2,0.1-0.3c0.1-0.1,0.1-0.3,0.2-0.4C33,89.5,33.1,89.3,33.2,89.1z
			 M34.1,87.4c0-0.1,0-0.2,0.1-0.4c0-0.1,0.1-0.2,0.2-0.3c0.1-0.1,0.2-0.2,0.3-0.3c0.1-0.1,0.3-0.1,0.5-0.1c0.3,0,0.5,0.1,0.6,0.2
			c0.1,0.1,0.2,0.3,0.2,0.4c0,0.1,0,0.2-0.1,0.3c0,0.1-0.1,0.2-0.2,0.3c-0.1,0.1-0.2,0.2-0.3,0.3c-0.1,0.1-0.3,0.1-0.4,0.1
			c-0.3,0-0.5-0.1-0.7-0.2C34.1,87.7,34.1,87.6,34.1,87.4z"/>
		<path d="M38.1,89.7c0.3,0.2,0.6,0.4,0.8,0.6c0.2,0.2,0.5,0.4,0.6,0.7c0.2,0.2,0.3,0.5,0.4,0.7c0.1,0.2,0.1,0.5,0.1,0.7
			c0,0.3-0.1,0.6-0.3,0.8c-0.2,0.2-0.4,0.4-0.7,0.6s-0.6,0.3-0.9,0.4c-0.3,0.1-0.7,0.1-1.1,0.1c-0.3,0-0.5,0-0.8-0.1
			c-0.3-0.1-0.5-0.1-0.7-0.3c-0.2-0.1-0.4-0.3-0.5-0.5c-0.1-0.2-0.3-0.4-0.3-0.7c0,0,0-0.1,0-0.1c0-0.1,0-0.3,0.1-0.4
			c0.1-0.1,0.2-0.2,0.3-0.2c0.1,0,0.1,0,0.2,0c0.1,0,0.1,0.1,0.2,0.1c0.1,0.1,0.2,0.2,0.3,0.3c0.1,0.1,0.3,0.2,0.4,0.3
			c0.1,0.1,0.3,0.1,0.5,0.2c0.2,0,0.3,0.1,0.5,0.1c0.2,0,0.3,0,0.5,0c0.2,0,0.3-0.1,0.4-0.1c0.1-0.1,0.2-0.2,0.3-0.3
			c0.1-0.1,0.1-0.2,0.1-0.4c0-0.3-0.1-0.5-0.2-0.7c-0.1-0.2-0.3-0.4-0.5-0.6c-0.2-0.2-0.4-0.4-0.6-0.5s-0.5-0.3-0.7-0.5
			c0,0-0.1-0.1-0.1-0.1c-0.1-0.1-0.1-0.2-0.1-0.2c0-0.1,0-0.1,0-0.1c0.1-0.1,0.2-0.2,0.3-0.3c0.1-0.1,0.2-0.2,0.3-0.3
			c0.1-0.1,0.3-0.2,0.4-0.2c0.1-0.1,0.3-0.1,0.4-0.1c0.1,0,0.2,0,0.3,0c0.1,0,0.2,0.1,0.2,0.1c0.1,0,0.1,0.1,0.2,0.2
			c0,0.1,0.1,0.1,0.1,0.2c0,0.1,0,0.1-0.1,0.2c0,0.1-0.1,0.1-0.1,0.2c-0.1,0.1-0.1,0.1-0.2,0.2C38.3,89.6,38.2,89.7,38.1,89.7z"/>
		<path d="M49,92.5C49,92.5,49,92.5,49,92.5C49,92.6,49,92.6,49,92.5c0,0.2,0,0.3,0.1,0.4c0,0.1,0.1,0.2,0.2,0.2c0,0,0.1,0,0.1,0
			c0.3-0.1,0.6-0.2,0.9-0.4c0.3-0.2,0.6-0.4,0.9-0.6c0.3-0.2,0.5-0.5,0.8-0.7c0.2-0.2,0.4-0.4,0.6-0.6c0.1-0.1,0.2-0.1,0.2-0.1
			c0.1,0,0.1,0,0.2,0.1c0.1,0.1,0.1,0.2,0.1,0.3c0,0.1,0,0.2-0.1,0.3c-0.1,0.1-0.1,0.3-0.3,0.4c-0.3,0.3-0.6,0.7-0.9,1
			c-0.3,0.3-0.6,0.6-1,0.8c-0.3,0.2-0.6,0.4-1,0.6c-0.3,0.1-0.6,0.2-0.9,0.2c-0.4,0-0.7-0.1-0.9-0.3c-0.2-0.2-0.3-0.5-0.3-1
			c0,0,0-0.1,0-0.1c0,0,0-0.1,0-0.1c-0.1,0.2-0.3,0.4-0.5,0.6c-0.2,0.2-0.4,0.3-0.6,0.5c-0.2,0.1-0.4,0.2-0.7,0.3
			c-0.2,0.1-0.5,0.1-0.7,0.1c-0.2,0-0.4,0-0.5-0.1c-0.2-0.1-0.3-0.1-0.4-0.2c-0.1-0.1-0.2-0.3-0.3-0.4c-0.1-0.2-0.1-0.4-0.1-0.6
			c0-0.4,0.1-0.8,0.2-1.2c0.1-0.4,0.3-0.7,0.5-1.1c0.2-0.3,0.5-0.6,0.8-0.9c0.3-0.3,0.6-0.5,0.9-0.7c0.3-0.2,0.6-0.3,0.9-0.4
			c0.3-0.1,0.6-0.1,0.8-0.1c0.3,0,0.5,0,0.8,0.1c0.1,0.1,0.2,0.1,0.3,0.2c0,0,0-0.1,0.1-0.1c0.1-0.1,0.1-0.2,0.1-0.3
			c0-0.1,0.1-0.2,0.1-0.2c0,0,0.1-0.2,0.1-0.3c0.1-0.2,0.2-0.4,0.3-0.6c0.1-0.2,0.2-0.5,0.3-0.7c0.1-0.3,0.2-0.5,0.3-0.7
			c0.1-0.2,0.2-0.4,0.2-0.6c0.1-0.2,0.1-0.3,0.1-0.3c0-0.1,0.1-0.3,0.1-0.4c0.1-0.1,0.1-0.2,0.2-0.3c0.1-0.1,0.2-0.2,0.3-0.2
			c0.1-0.1,0.2-0.1,0.4-0.1c0.2,0,0.4,0,0.5,0.1c0.1,0.1,0.2,0.2,0.2,0.5c0,0.1,0,0.2,0,0.3c0,0.1-0.1,0.2-0.1,0.3
			c0,0.1-0.1,0.2-0.1,0.3c0,0.1-0.1,0.2-0.1,0.3c-0.3,0.5-0.5,1.1-0.8,1.7c-0.3,0.6-0.6,1.2-0.8,1.8s-0.5,1.2-0.8,1.8
			S49.2,92,49,92.5z M48.8,89.5c-0.3,0-0.6,0.1-1,0.2c-0.4,0.1-0.7,0.3-1.1,0.6c-0.3,0.3-0.6,0.6-0.8,1c-0.2,0.4-0.4,0.8-0.4,1.3
			c0,0.2,0.1,0.3,0.3,0.3c0.2,0,0.4,0,0.6-0.1c0.2-0.1,0.4-0.2,0.6-0.4c0.2-0.2,0.3-0.3,0.5-0.5s0.3-0.4,0.4-0.6
			c0.1-0.2,0.2-0.4,0.4-0.6c0.1-0.2,0.2-0.4,0.3-0.6c0-0.1,0.1-0.1,0.1-0.2C48.7,89.7,48.7,89.6,48.8,89.5z"/>
		<path d="M55.2,88.5c0.4,0,0.7,0.1,1,0.3c0.2,0.2,0.3,0.5,0.3,0.9c0,0.2-0.1,0.4-0.2,0.7c-0.1,0.2-0.3,0.5-0.6,0.7
			c-0.3,0.2-0.6,0.5-1.1,0.7c-0.5,0.3-1,0.5-1.7,0.8c0,0.1,0.1,0.3,0.2,0.4c0.1,0.1,0.3,0.1,0.5,0.1c0.2,0,0.5,0,0.8-0.1
			c0.3-0.1,0.5-0.2,0.8-0.3c0.3-0.1,0.5-0.2,0.8-0.4c0.3-0.1,0.5-0.2,0.7-0.4c0.2-0.1,0.4-0.2,0.5-0.3c0.1-0.1,0.2-0.1,0.3-0.2
			c0,0,0.1,0,0.1-0.1c0,0,0.1,0,0.1,0c0.1,0,0.1,0,0.2,0c0,0,0.1,0.1,0.1,0.1c0,0,0,0.1,0.1,0.1c0,0,0,0.1,0,0.1c0,0,0,0.1,0,0.2
			c0,0.1,0,0.1-0.1,0.2c0,0-0.1,0.1-0.3,0.2c-0.1,0.1-0.3,0.2-0.6,0.4c-0.2,0.2-0.5,0.3-0.8,0.5c-0.3,0.2-0.6,0.3-1,0.5
			c-0.3,0.1-0.7,0.3-1.1,0.4c-0.4,0.1-0.7,0.1-1.1,0.1c-0.3,0-0.6-0.1-0.8-0.2s-0.4-0.3-0.6-0.5c-0.2-0.2-0.3-0.4-0.4-0.7
			c-0.1-0.3-0.1-0.5-0.1-0.8c0-0.2,0-0.5,0.1-0.7s0.2-0.5,0.4-0.8c0.2-0.3,0.4-0.5,0.6-0.8s0.5-0.5,0.8-0.7c0.3-0.2,0.6-0.4,1-0.5
			C54.4,88.5,54.8,88.5,55.2,88.5z M54.9,89.5C54.9,89.5,54.9,89.5,54.9,89.5c-0.1,0-0.1,0-0.1,0c-0.2,0-0.4,0-0.5,0.1
			c-0.2,0.1-0.3,0.2-0.5,0.3c-0.1,0.1-0.3,0.3-0.4,0.4s-0.2,0.3-0.3,0.5c-0.1,0.2-0.2,0.3-0.2,0.5c-0.1,0.1-0.1,0.3-0.1,0.4
			c0.2-0.1,0.4-0.2,0.6-0.3c0.2-0.1,0.4-0.2,0.5-0.3c0.2-0.1,0.3-0.2,0.4-0.3c0.1-0.1,0.2-0.1,0.3-0.2c0.2-0.1,0.4-0.3,0.5-0.4
			c0.1-0.1,0.1-0.2,0.1-0.3c0-0.1,0-0.1-0.1-0.2C55,89.6,55,89.5,54.9,89.5z"/>
		<path d="M59.4,89.7c0.3,0.2,0.6,0.4,0.8,0.6c0.2,0.2,0.5,0.4,0.6,0.7c0.2,0.2,0.3,0.5,0.4,0.7c0.1,0.2,0.1,0.5,0.1,0.7
			c0,0.3-0.1,0.6-0.3,0.8c-0.2,0.2-0.4,0.4-0.7,0.6c-0.3,0.2-0.6,0.3-0.9,0.4c-0.3,0.1-0.7,0.1-1.1,0.1c-0.3,0-0.5,0-0.8-0.1
			c-0.3-0.1-0.5-0.1-0.7-0.3s-0.4-0.3-0.5-0.5c-0.1-0.2-0.3-0.4-0.3-0.7c0,0,0-0.1,0-0.1c0-0.1,0-0.3,0.1-0.4
			c0.1-0.1,0.2-0.2,0.3-0.2c0.1,0,0.1,0,0.2,0c0.1,0,0.1,0.1,0.2,0.1c0.1,0.1,0.2,0.2,0.3,0.3c0.1,0.1,0.3,0.2,0.4,0.3
			c0.1,0.1,0.3,0.1,0.5,0.2c0.2,0,0.3,0.1,0.5,0.1c0.2,0,0.3,0,0.5,0c0.2,0,0.3-0.1,0.4-0.1c0.1-0.1,0.2-0.2,0.3-0.3
			c0.1-0.1,0.1-0.2,0.1-0.4c0-0.3-0.1-0.5-0.2-0.7c-0.1-0.2-0.3-0.4-0.5-0.6c-0.2-0.2-0.4-0.4-0.6-0.5c-0.2-0.2-0.5-0.3-0.7-0.5
			c0,0-0.1-0.1-0.1-0.1c-0.1-0.1-0.1-0.2-0.1-0.2c0-0.1,0-0.1,0-0.1c0.1-0.1,0.2-0.2,0.3-0.3c0.1-0.1,0.2-0.2,0.3-0.3
			c0.1-0.1,0.3-0.2,0.4-0.2c0.1-0.1,0.3-0.1,0.4-0.1c0.1,0,0.2,0,0.3,0c0.1,0,0.2,0.1,0.2,0.1c0.1,0,0.1,0.1,0.2,0.2
			c0,0.1,0.1,0.1,0.1,0.2c0,0.1,0,0.1-0.1,0.2c0,0.1-0.1,0.1-0.1,0.2c-0.1,0.1-0.1,0.1-0.2,0.2C59.5,89.6,59.5,89.7,59.4,89.7z"/>
		<path d="M62.9,89.1c0.1-0.1,0.2-0.2,0.3-0.3c0.1-0.1,0.2-0.1,0.3-0.1c0.2,0,0.4,0.1,0.5,0.2c0.1,0.1,0.2,0.3,0.2,0.5
			c0,0,0,0.1,0,0.1c0,0,0,0.1,0,0.1C64.1,89.8,64,89.9,64,90s-0.1,0.2-0.1,0.3c0,0.1-0.1,0.2-0.1,0.2c0,0.1-0.1,0.2-0.1,0.3
			c-0.1,0.1-0.1,0.3-0.2,0.4c-0.1,0.2-0.2,0.3-0.2,0.5c-0.1,0.2-0.1,0.3-0.2,0.5c0,0.2-0.1,0.3-0.1,0.4c0,0.1,0,0.2,0.1,0.3
			c0.1,0,0.2,0.1,0.3,0.1c0.1,0,0.3,0,0.5-0.1c0.2-0.1,0.3-0.1,0.5-0.2c0.2-0.1,0.3-0.2,0.5-0.3c0.2-0.1,0.3-0.3,0.4-0.4
			c0.1-0.1,0.3-0.3,0.4-0.4c0.1-0.1,0.2-0.2,0.3-0.3c0.1-0.1,0.2-0.1,0.3-0.1c0.1,0,0.2,0,0.2,0.1c0.1,0.1,0.1,0.2,0.1,0.3
			c0,0.1,0,0.2-0.1,0.4c-0.1,0.1-0.2,0.3-0.3,0.4c-0.3,0.3-0.5,0.5-0.8,0.8c-0.3,0.2-0.6,0.5-0.8,0.6c-0.3,0.2-0.6,0.3-0.9,0.5
			c-0.3,0.1-0.6,0.2-0.9,0.2c-0.4,0-0.7-0.1-1-0.3c-0.2-0.2-0.4-0.5-0.4-1c0-0.2,0-0.5,0.1-0.7c0.1-0.2,0.1-0.4,0.2-0.7
			c0.1-0.2,0.2-0.4,0.3-0.6c0.1-0.2,0.2-0.4,0.3-0.6c0-0.1,0.1-0.2,0.1-0.3c0.1-0.1,0.1-0.3,0.2-0.4C62.7,89.5,62.8,89.3,62.9,89.1z
			 M63.7,87.4c0-0.1,0-0.2,0.1-0.4c0-0.1,0.1-0.2,0.2-0.3c0.1-0.1,0.2-0.2,0.3-0.3c0.1-0.1,0.3-0.1,0.5-0.1c0.3,0,0.5,0.1,0.6,0.2
			c0.1,0.1,0.2,0.3,0.2,0.4c0,0.1,0,0.2-0.1,0.3c0,0.1-0.1,0.2-0.2,0.3c-0.1,0.1-0.2,0.2-0.3,0.3c-0.1,0.1-0.3,0.1-0.4,0.1
			c-0.3,0-0.5-0.1-0.7-0.2C63.8,87.7,63.7,87.6,63.7,87.4z"/>
		<path d="M69.1,88.5c0.2,0,0.4,0,0.6,0.1c0.2,0.1,0.3,0.1,0.4,0.2c0.1,0.1,0.3,0.2,0.4,0.3c0.1,0,0.1-0.1,0.2-0.1
			c0.1,0,0.2-0.1,0.2-0.1c0.1,0,0.2,0,0.3,0c0.2,0,0.4,0,0.5,0.1c0.1,0.1,0.2,0.2,0.2,0.3c0,0.1,0,0.1-0.1,0.2l-1.8,3.4l0.1-0.1
			c0.6-0.4,1.1-0.6,1.5-0.8c0.4-0.2,0.7-0.4,0.9-0.5c0.2-0.1,0.4-0.2,0.5-0.2c0.1,0,0.2,0,0.2,0c0.1,0,0.2,0,0.3,0.1
			c0.1,0.1,0.1,0.2,0.1,0.3c0,0.1,0,0.3-0.1,0.5c-0.1,0.2-0.2,0.3-0.4,0.3c-0.2,0.1-0.5,0.2-0.8,0.4c-0.3,0.1-0.6,0.3-1,0.5
			c-0.3,0.2-0.7,0.3-1,0.6c-0.3,0.2-0.7,0.4-0.9,0.7L68,97.2c-0.1,0.3-0.2,0.5-0.3,0.7c-0.1,0.2-0.2,0.3-0.3,0.4
			c-0.1,0.1-0.2,0.2-0.3,0.2c-0.1,0-0.2,0.1-0.4,0.1c-0.2,0-0.4-0.1-0.5-0.2c-0.1-0.1-0.2-0.3-0.2-0.5c0-0.2,0-0.4,0.1-0.7
			c0.1-0.3,0.2-0.6,0.4-0.9c0.2-0.3,0.4-0.6,0.6-1c0.3-0.3,0.5-0.7,0.8-1.1l1-1.2c-0.2,0.2-0.4,0.3-0.6,0.5
			c-0.2,0.1-0.4,0.2-0.5,0.3c-0.2,0.1-0.3,0.1-0.5,0.2c-0.2,0-0.3,0.1-0.4,0.1c-0.2,0-0.4,0-0.6-0.1c-0.2-0.1-0.3-0.2-0.5-0.4
			c-0.1-0.2-0.2-0.4-0.3-0.6c-0.1-0.2-0.1-0.5-0.1-0.8c0-0.6,0.1-1.1,0.3-1.5c0.2-0.5,0.5-0.8,0.8-1.2c0.3-0.3,0.7-0.6,1.1-0.7
			C68.3,88.6,68.8,88.5,69.1,88.5z M68.9,89.8c-0.2,0-0.5,0.1-0.7,0.2c-0.2,0.1-0.4,0.3-0.6,0.5c-0.2,0.2-0.3,0.4-0.4,0.7
			C67,91.4,67,91.7,67,92c0,0.1,0,0.2,0,0.3c0,0.1,0,0.2,0.1,0.3c0,0.1,0.1,0.2,0.2,0.2c0.1,0.1,0.2,0.1,0.4,0.1
			c0.1,0,0.2,0,0.4-0.1c0.1-0.1,0.3-0.2,0.5-0.4c0.2-0.1,0.3-0.3,0.5-0.5c0.1-0.2,0.3-0.4,0.4-0.5c0.1-0.2,0.2-0.3,0.3-0.5
			c0.1-0.1,0.1-0.2,0.1-0.3c0-0.1,0-0.2-0.1-0.3c-0.1-0.1-0.1-0.2-0.2-0.2c-0.1-0.1-0.2-0.1-0.3-0.1C69,89.8,68.9,89.8,68.9,89.8z"
			/>
		<path d="M74.1,89.4c0.1-0.2,0.2-0.4,0.4-0.5c0.2-0.1,0.3-0.2,0.5-0.2c0.1,0,0.2,0,0.3,0.1c0.1,0.1,0.1,0.2,0.1,0.4
			c0,0.1,0,0.1,0,0.2c0,0.1,0,0.2-0.1,0.2c0.1-0.1,0.3-0.3,0.5-0.4c0.2-0.2,0.4-0.3,0.7-0.4c0.3-0.1,0.5-0.2,0.8-0.3
			c0.3-0.1,0.5-0.1,0.8-0.1c0.3,0,0.5,0.1,0.7,0.2c0.2,0.1,0.3,0.4,0.3,0.7c0,0.2,0,0.4-0.1,0.6c-0.1,0.2-0.1,0.4-0.2,0.6
			c-0.1,0.2-0.2,0.4-0.3,0.6c-0.1,0.2-0.2,0.4-0.3,0.5c-0.1,0.2-0.2,0.3-0.3,0.5c-0.1,0.1-0.2,0.3-0.2,0.4c-0.1,0.1-0.1,0.2-0.1,0.3
			c0,0,0,0.1,0,0.1c0,0,0.1,0,0.1,0c0,0,0.1,0,0.1,0c0,0,0.1,0,0.2-0.1c0.3-0.1,0.6-0.2,0.9-0.4c0.3-0.2,0.6-0.3,0.8-0.5
			c0.3-0.2,0.5-0.3,0.7-0.5c0.2-0.2,0.4-0.3,0.6-0.5c0,0,0.1-0.1,0.1-0.1s0.1,0,0.1,0c0.1,0,0.2,0,0.2,0.1c0,0.1,0.1,0.2,0.1,0.3
			c0,0.2,0,0.3-0.1,0.5c-0.1,0.2-0.3,0.4-0.5,0.5c-0.3,0.2-0.6,0.4-0.8,0.6c-0.2,0.2-0.5,0.3-0.7,0.5c-0.3,0.2-0.5,0.3-0.8,0.4
			c-0.3,0.1-0.6,0.3-1,0.4c-0.1,0-0.3,0.1-0.4,0.1c-0.1,0-0.2,0-0.3,0c-0.3,0-0.5-0.1-0.6-0.2s-0.2-0.4-0.2-0.6c0,0,0-0.1,0-0.1
			c0,0,0-0.1,0-0.1c0-0.2,0.1-0.3,0.1-0.5c0.1-0.2,0.2-0.4,0.3-0.6c0.1-0.2,0.2-0.4,0.3-0.6c0.1-0.2,0.2-0.4,0.3-0.6
			c0.1-0.2,0.2-0.3,0.3-0.5c0.1-0.1,0.1-0.3,0.1-0.3c0-0.1,0-0.1-0.1-0.2c0-0.1-0.1-0.1-0.2-0.1c-0.3,0-0.6,0.1-0.9,0.3
			c-0.3,0.2-0.6,0.4-0.8,0.7c-0.3,0.3-0.5,0.6-0.7,0.9c-0.2,0.3-0.4,0.6-0.6,0.9c-0.1,0.2-0.2,0.4-0.3,0.5c-0.1,0.2-0.2,0.4-0.3,0.5
			c-0.1,0.2-0.2,0.3-0.3,0.4c-0.1,0.1-0.3,0.2-0.4,0.2c-0.2,0-0.3-0.1-0.4-0.2c-0.1-0.1-0.2-0.3-0.2-0.4c0-0.1,0-0.2,0.1-0.4
			c0.1-0.2,0.2-0.4,0.3-0.7c0.1-0.3,0.2-0.5,0.4-0.8c0.1-0.3,0.3-0.6,0.4-0.9c0.1-0.3,0.3-0.6,0.4-0.8C73.9,89.8,74,89.6,74.1,89.4z
			"/>
	</g>
	<g>
		<path d="M18,2c0-0.4-0.3-0.7-0.7-0.7H3.7C3.3,1.4,3,1.7,3,2v10.1c0,0.4,0.3,0.7,0.7,0.7h4c0.4,0,0.7,0.3,0.7,0.7v65.6
			c0,0.4,0.3,0.7,0.7,0.7h13.6c0.4,0,0.7-0.3,0.7-0.7V69c0-0.4-0.3-0.7-0.7-0.7h-4c-0.4,0-0.7-0.3-0.7-0.7V2z"/>
		<path d="M84.7,2c0-0.4-0.3-0.7-0.7-0.7H70.4c-0.4,0-0.7,0.3-0.7,0.7v10.1c0,0.4,0.3,0.7,0.7,0.7h4c0.4,0,0.7,0.3,0.7,0.7v65.6
			c0,0.4,0.3,0.7,0.7,0.7h13.6c0.4,0,0.7-0.3,0.7-0.7V69c0-0.4-0.3-0.7-0.7-0.7h-4c-0.4,0-0.7-0.3-0.7-0.7V2z"/>
		<path d="M30.6,20.1c-0.4,0-0.7,0.3-0.7,0.7v10.1c0,0.4,0.3,0.7,0.7,0.7h4c0.4,0,0.7,0.3,0.7,0.7v46.9c0,0.4,0.3,0.7,0.7,0.7h8.3
			c0.4,0,0.7-0.3,0.7-0.7V20.7c0-0.4-0.3-0.7-0.7-0.7H30.6z"/>
		<path d="M35.3,10.3c0,0.4,0.3,0.7,0.7,0.7h8.3c0.4,0,0.7-0.3,0.7-0.7V2c0-0.4-0.3-0.7-0.7-0.7h-8.3c-0.4,0-0.7,0.3-0.7,0.7V10.3z"
			/>
		<path d="M57.4,20.1c-0.4,0-0.7,0.3-0.7,0.7v58.4c0,0.4,0.3,0.7,0.7,0.7h14.4c0.4,0,0.7-0.3,0.7-0.7V69c0-0.4-0.3-0.7-0.7-0.7H67
			c-0.4,0-0.7-0.3-0.7-0.7V32.2c0-0.4,0.3-0.7,0.7-0.7h4c0.4,0,0.7-0.3,0.7-0.7V20.7c0-0.4-0.3-0.7-0.7-0.7H57.4z"/>
	</g>
</g>
<g>
	<g>
		<path d="M127.2,75.4c0,0.7-0.6,1.2-1.2,1.2h-6.8c-0.7,0-1.2-0.6-1.2-1.2V16c0-0.7,0.6-1.2,1.2-1.2h6.8c0.7,0,1.2,0.6,1.2,1.2V75.4
			z"/>
	</g>
	<g>
		<path d="M265,75.4c0,0.7-0.6,1.2-1.2,1.2h-6.8c-0.7,0-1.2-0.6-1.2-1.2V16c0-0.7,0.6-1.2,1.2-1.2h6.8c0.7,0,1.2,0.6,1.2,1.2V75.4z"
			/>
	</g>
	<g>
		<path d="M159.8,75.4c0,0.7-0.6,1.2-1.2,1.2h-6.8c-0.7,0-1.2-0.6-1.2-1.2V46.9c0-0.7,0.6-1.2,1.2-1.2h6.8c0.7,0,1.2,0.6,1.2,1.2
			V75.4z"/>
	</g>
	<g>
		<path d="M397.4,75.4c0,0.7-0.6,1.2-1.2,1.2h-6.8c-0.7,0-1.2-0.6-1.2-1.2v-6.8c0-0.7,0.6-1.2,1.2-1.2h6.8c0.7,0,1.2,0.6,1.2,1.2
			V75.4z"/>
	</g>
	<g>
		<path d="M159.8,22.8c0,0.7-0.6,1.2-1.2,1.2h-6.8c-0.7,0-1.2-0.6-1.2-1.2V16c0-0.7,0.6-1.2,1.2-1.2h6.8c0.7,0,1.2,0.6,1.2,1.2V22.8
			z"/>
	</g>
	<g>
		<path d="M223.1,75.4c0,0.7-0.6,1.2-1.2,1.2H215c-0.7,0-1.2-0.6-1.2-1.2V16c0-0.7,0.6-1.2,1.2-1.2h6.8c0.7,0,1.2,0.6,1.2,1.2V75.4z
			"/>
	</g>
	<g>
		<path d="M289.6,45.7c-0.7,0-1.2,0.6-1.2,1.2l-0.1,28.5c0,0.7,0.6,1.2,1.2,1.2h6.8c0.7,0,1.2-0.6,1.2-1.2V56.2
			c0-0.7,0.6-1.2,1.2-1.2h10.1c0.7,0,1.2,0.6,1.2,1.2v19.2c0,0.7,0.6,1.2,1.2,1.2h6.8c0.7,0,1.2-0.6,1.2-1.2V46.9
			c0-0.7-0.6-1.2-1.2-1.2H289.6z"/>
	</g>
	<g>
		<path d="M368.3,55c0.7,0,1.2-0.6,1.2-1.2v-6.8c0-0.7-0.6-1.2-1.2-1.2h-24.4c-0.7,0-1.2,0.6-1.2,1.2v28.7c0,0.7,0.6,1.2,1.2,1.2
			h24.4c0.7,0,1.2-0.6,1.2-1.2v-6.8c0-0.7-0.6-1.2-1.2-1.2h-15.1c-0.7,0-1.2-0.6-1.2-1.2V56.2c0-0.7,0.6-1.2,1.2-1.2H368.3z"/>
	</g>
	<g>
		<path d="M208.7,55c0.7,0,1.2-0.6,1.2-1.2v-6.8c0-0.7-0.6-1.2-1.2-1.2h-24.4c-0.7,0-1.2,0.6-1.2,1.2v28.7c0,0.7,0.6,1.2,1.2,1.2
			h24.4c0.7,0,1.2-0.6,1.2-1.2v-6.8c0-0.7-0.6-1.2-1.2-1.2h-15.1c-0.7,0-1.2-0.6-1.2-1.2V56.2c0-0.7,0.6-1.2,1.2-1.2H208.7z"/>
	</g>
</g>
</svg>
